<svg xmlns="http://www.w3.org/2000/svg" width="84.5" height="82.417" viewBox="0 0 84.5 82.417">
  <path id="iconmonstr-github-1" d="M42.25,0A42.255,42.255,0,0,0,28.9,82.342c2.109.391,2.792-.919,2.792-2.032V72.445c-11.753,2.556-14.2-4.985-14.2-4.985-1.922-4.883-4.693-6.183-4.693-6.183-3.834-2.623.292-2.567.292-2.567,4.243.3,6.475,4.355,6.475,4.355,3.767,6.457,9.883,4.591,12.295,3.51a8.964,8.964,0,0,1,2.683-5.647c-9.383-1.074-19.248-4.7-19.248-20.882a16.352,16.352,0,0,1,4.352-11.341c-.437-1.067-1.884-5.366.412-11.182,0,0,3.549-1.134,11.622,4.331a40.046,40.046,0,0,1,21.157,0c8.066-5.464,11.608-4.331,11.608-4.331,2.3,5.82.852,10.119.415,11.182a16.309,16.309,0,0,1,4.348,11.341c0,16.228-9.883,19.8-19.291,20.847,1.514,1.31,2.9,3.88,2.9,7.823V80.31c0,1.123.676,2.443,2.82,2.028A42.258,42.258,0,0,0,42.25,0Z"/>
</svg>
